<mxfile host="app.diagrams.net" modified="2024-05-31T11:11:40.599Z" agent="Mozilla/5.0 (Windows NT 10.0; Win64; x64) AppleWebKit/537.36 (KHTML, like Gecko) Chrome/125.0.0.0 Safari/537.36" etag="eHSgiNv2nwZwIA223u8v" version="24.4.11" type="device">
  <diagram name="Trang-1" id="m2IbM45B26J165mP9p7z">
    <mxGraphModel dx="794" dy="412" grid="1" gridSize="10" guides="1" tooltips="1" connect="1" arrows="1" fold="1" page="1" pageScale="1" pageWidth="827" pageHeight="1169" math="0" shadow="0">
      <root>
        <mxCell id="0" />
        <mxCell id="1" parent="0" />
        <mxCell id="wQ3vL-IBeLK55Qo7cI2P-1" value="Client" style="swimlane;whiteSpace=wrap;html=1;" vertex="1" parent="1">
          <mxGeometry x="80" y="40" width="280" height="800" as="geometry" />
        </mxCell>
        <mxCell id="wQ3vL-IBeLK55Qo7cI2P-2" value="" style="ellipse;shape=doubleEllipse;whiteSpace=wrap;html=1;aspect=fixed;fillColor=#000000;" vertex="1" parent="wQ3vL-IBeLK55Qo7cI2P-1">
          <mxGeometry x="20" y="55" width="30" height="30" as="geometry" />
        </mxCell>
        <mxCell id="wQ3vL-IBeLK55Qo7cI2P-3" value="Chọn chức năng xóa dữ liệu" style="rounded=0;whiteSpace=wrap;html=1;" vertex="1" parent="wQ3vL-IBeLK55Qo7cI2P-1">
          <mxGeometry x="95" y="40" width="135" height="60" as="geometry" />
        </mxCell>
        <mxCell id="wQ3vL-IBeLK55Qo7cI2P-4" value="" style="endArrow=classic;html=1;rounded=0;exitX=1;exitY=0.5;exitDx=0;exitDy=0;entryX=0;entryY=0.5;entryDx=0;entryDy=0;" edge="1" parent="wQ3vL-IBeLK55Qo7cI2P-1" source="wQ3vL-IBeLK55Qo7cI2P-2" target="wQ3vL-IBeLK55Qo7cI2P-3">
          <mxGeometry width="50" height="50" relative="1" as="geometry">
            <mxPoint x="310" y="200" as="sourcePoint" />
            <mxPoint x="360" y="150" as="targetPoint" />
          </mxGeometry>
        </mxCell>
        <mxCell id="wQ3vL-IBeLK55Qo7cI2P-12" value="" style="ellipse;html=1;shape=endState;fillColor=#000000;strokeColor=#ff0000;" vertex="1" parent="wQ3vL-IBeLK55Qo7cI2P-1">
          <mxGeometry x="55" y="750" width="30" height="30" as="geometry" />
        </mxCell>
        <mxCell id="wQ3vL-IBeLK55Qo7cI2P-23" value="Hiển thi cảnh báo xác nhận xóa" style="rounded=0;whiteSpace=wrap;html=1;" vertex="1" parent="wQ3vL-IBeLK55Qo7cI2P-1">
          <mxGeometry x="95" y="140" width="135" height="60" as="geometry" />
        </mxCell>
        <mxCell id="wQ3vL-IBeLK55Qo7cI2P-24" value="" style="endArrow=classic;html=1;rounded=0;exitX=0.5;exitY=1;exitDx=0;exitDy=0;" edge="1" parent="wQ3vL-IBeLK55Qo7cI2P-1" source="wQ3vL-IBeLK55Qo7cI2P-3" target="wQ3vL-IBeLK55Qo7cI2P-23">
          <mxGeometry width="50" height="50" relative="1" as="geometry">
            <mxPoint x="300" y="260" as="sourcePoint" />
            <mxPoint x="350" y="210" as="targetPoint" />
          </mxGeometry>
        </mxCell>
        <mxCell id="wQ3vL-IBeLK55Qo7cI2P-25" value="" style="html=1;whiteSpace=wrap;aspect=fixed;shape=isoRectangle;" vertex="1" parent="wQ3vL-IBeLK55Qo7cI2P-1">
          <mxGeometry x="120" y="240" width="83.33" height="50" as="geometry" />
        </mxCell>
        <mxCell id="wQ3vL-IBeLK55Qo7cI2P-26" value="" style="endArrow=classic;html=1;rounded=0;exitX=0.5;exitY=1;exitDx=0;exitDy=0;entryX=0.512;entryY=0.04;entryDx=0;entryDy=0;entryPerimeter=0;" edge="1" parent="wQ3vL-IBeLK55Qo7cI2P-1" source="wQ3vL-IBeLK55Qo7cI2P-23" target="wQ3vL-IBeLK55Qo7cI2P-25">
          <mxGeometry width="50" height="50" relative="1" as="geometry">
            <mxPoint x="300" y="260" as="sourcePoint" />
            <mxPoint x="350" y="210" as="targetPoint" />
          </mxGeometry>
        </mxCell>
        <mxCell id="wQ3vL-IBeLK55Qo7cI2P-27" value="Đóng cảnh báo" style="rounded=0;whiteSpace=wrap;html=1;" vertex="1" parent="wQ3vL-IBeLK55Qo7cI2P-1">
          <mxGeometry x="10" y="320" width="120" height="60" as="geometry" />
        </mxCell>
        <mxCell id="wQ3vL-IBeLK55Qo7cI2P-28" value="" style="endArrow=classic;html=1;rounded=0;exitX=0.016;exitY=0.52;exitDx=0;exitDy=0;exitPerimeter=0;entryX=0.5;entryY=0;entryDx=0;entryDy=0;" edge="1" parent="wQ3vL-IBeLK55Qo7cI2P-1" target="wQ3vL-IBeLK55Qo7cI2P-27">
          <mxGeometry width="50" height="50" relative="1" as="geometry">
            <mxPoint x="121.33327999999995" y="265" as="sourcePoint" />
            <mxPoint x="80" y="309" as="targetPoint" />
            <Array as="points">
              <mxPoint x="70" y="265" />
            </Array>
          </mxGeometry>
        </mxCell>
        <mxCell id="wQ3vL-IBeLK55Qo7cI2P-29" value="Không" style="text;html=1;align=center;verticalAlign=middle;whiteSpace=wrap;rounded=0;" vertex="1" parent="wQ3vL-IBeLK55Qo7cI2P-1">
          <mxGeometry x="70" y="260" width="60" height="30" as="geometry" />
        </mxCell>
        <mxCell id="wQ3vL-IBeLK55Qo7cI2P-34" value="Hiển thị cảnh báo lỗi" style="rounded=0;whiteSpace=wrap;html=1;" vertex="1" parent="wQ3vL-IBeLK55Qo7cI2P-1">
          <mxGeometry x="140" y="320" width="120" height="60" as="geometry" />
        </mxCell>
        <mxCell id="wQ3vL-IBeLK55Qo7cI2P-41" value="Hiển thị thông báo xóa thành công" style="rounded=0;whiteSpace=wrap;html=1;" vertex="1" parent="wQ3vL-IBeLK55Qo7cI2P-1">
          <mxGeometry x="140" y="560" width="120" height="60" as="geometry" />
        </mxCell>
        <mxCell id="wQ3vL-IBeLK55Qo7cI2P-50" value="" style="html=1;points=[[0,0,0,0,5],[0,1,0,0,-5],[1,0,0,0,5],[1,1,0,0,-5]];perimeter=orthogonalPerimeter;outlineConnect=0;targetShapes=umlLifeline;portConstraint=eastwest;newEdgeStyle={&quot;curved&quot;:0,&quot;rounded&quot;:0};direction=south;fillColor=#000000;" vertex="1" parent="wQ3vL-IBeLK55Qo7cI2P-1">
          <mxGeometry x="15" y="700" width="110" height="10" as="geometry" />
        </mxCell>
        <mxCell id="wQ3vL-IBeLK55Qo7cI2P-52" value="Có" style="text;html=1;align=center;verticalAlign=middle;whiteSpace=wrap;rounded=0;" vertex="1" parent="wQ3vL-IBeLK55Qo7cI2P-1">
          <mxGeometry x="190" y="240" width="60" height="30" as="geometry" />
        </mxCell>
        <mxCell id="wQ3vL-IBeLK55Qo7cI2P-56" value="" style="endArrow=classic;html=1;rounded=0;entryX=0.5;entryY=0;entryDx=0;entryDy=0;" edge="1" parent="wQ3vL-IBeLK55Qo7cI2P-1" source="wQ3vL-IBeLK55Qo7cI2P-50" target="wQ3vL-IBeLK55Qo7cI2P-12">
          <mxGeometry width="50" height="50" relative="1" as="geometry">
            <mxPoint x="300" y="690" as="sourcePoint" />
            <mxPoint x="350" y="640" as="targetPoint" />
          </mxGeometry>
        </mxCell>
        <mxCell id="wQ3vL-IBeLK55Qo7cI2P-14" value="Server" style="swimlane;whiteSpace=wrap;html=1;" vertex="1" parent="1">
          <mxGeometry x="360" y="40" width="280" height="800" as="geometry" />
        </mxCell>
        <mxCell id="wQ3vL-IBeLK55Qo7cI2P-30" value="Kiểm tra dữ liệu đã có phát sinh chưa" style="rounded=0;whiteSpace=wrap;html=1;" vertex="1" parent="wQ3vL-IBeLK55Qo7cI2P-14">
          <mxGeometry x="67" y="235" width="146" height="60" as="geometry" />
        </mxCell>
        <mxCell id="wQ3vL-IBeLK55Qo7cI2P-32" value="" style="html=1;whiteSpace=wrap;aspect=fixed;shape=isoRectangle;" vertex="1" parent="wQ3vL-IBeLK55Qo7cI2P-14">
          <mxGeometry x="98.34" y="323" width="83.33" height="50" as="geometry" />
        </mxCell>
        <mxCell id="wQ3vL-IBeLK55Qo7cI2P-33" value="" style="endArrow=classic;html=1;rounded=0;exitX=0.5;exitY=1;exitDx=0;exitDy=0;" edge="1" parent="wQ3vL-IBeLK55Qo7cI2P-14" source="wQ3vL-IBeLK55Qo7cI2P-30" target="wQ3vL-IBeLK55Qo7cI2P-32">
          <mxGeometry width="50" height="50" relative="1" as="geometry">
            <mxPoint x="20" y="460" as="sourcePoint" />
            <mxPoint x="70" y="410" as="targetPoint" />
          </mxGeometry>
        </mxCell>
        <mxCell id="wQ3vL-IBeLK55Qo7cI2P-36" value="Đã phát sinh" style="text;html=1;align=center;verticalAlign=middle;whiteSpace=wrap;rounded=0;" vertex="1" parent="wQ3vL-IBeLK55Qo7cI2P-14">
          <mxGeometry x="20" y="323" width="83" height="30" as="geometry" />
        </mxCell>
        <mxCell id="wQ3vL-IBeLK55Qo7cI2P-37" value="Thực hiện xóa dữ liệu" style="rounded=0;whiteSpace=wrap;html=1;" vertex="1" parent="wQ3vL-IBeLK55Qo7cI2P-14">
          <mxGeometry x="70" y="400" width="143" height="60" as="geometry" />
        </mxCell>
        <mxCell id="wQ3vL-IBeLK55Qo7cI2P-38" value="" style="endArrow=classic;html=1;rounded=0;exitX=0.508;exitY=0.993;exitDx=0;exitDy=0;exitPerimeter=0;entryX=0.5;entryY=0;entryDx=0;entryDy=0;" edge="1" parent="wQ3vL-IBeLK55Qo7cI2P-14" source="wQ3vL-IBeLK55Qo7cI2P-32" target="wQ3vL-IBeLK55Qo7cI2P-37">
          <mxGeometry width="50" height="50" relative="1" as="geometry">
            <mxPoint x="20" y="460" as="sourcePoint" />
            <mxPoint x="70" y="410" as="targetPoint" />
          </mxGeometry>
        </mxCell>
        <mxCell id="wQ3vL-IBeLK55Qo7cI2P-39" value="Chưa phát sinh" style="text;html=1;align=center;verticalAlign=middle;whiteSpace=wrap;rounded=0;" vertex="1" parent="wQ3vL-IBeLK55Qo7cI2P-14">
          <mxGeometry x="140" y="370" width="100" height="30" as="geometry" />
        </mxCell>
        <mxCell id="wQ3vL-IBeLK55Qo7cI2P-42" value="" style="html=1;whiteSpace=wrap;aspect=fixed;shape=isoRectangle;" vertex="1" parent="wQ3vL-IBeLK55Qo7cI2P-14">
          <mxGeometry x="99.83" y="480" width="83.33" height="50" as="geometry" />
        </mxCell>
        <mxCell id="wQ3vL-IBeLK55Qo7cI2P-44" value="" style="endArrow=classic;html=1;rounded=0;exitX=0.5;exitY=1;exitDx=0;exitDy=0;" edge="1" parent="wQ3vL-IBeLK55Qo7cI2P-14" source="wQ3vL-IBeLK55Qo7cI2P-37" target="wQ3vL-IBeLK55Qo7cI2P-42">
          <mxGeometry width="50" height="50" relative="1" as="geometry">
            <mxPoint x="20" y="590" as="sourcePoint" />
            <mxPoint x="70" y="540" as="targetPoint" />
          </mxGeometry>
        </mxCell>
        <mxCell id="wQ3vL-IBeLK55Qo7cI2P-46" value="Thành công" style="text;html=1;align=center;verticalAlign=middle;whiteSpace=wrap;rounded=0;" vertex="1" parent="wQ3vL-IBeLK55Qo7cI2P-14">
          <mxGeometry x="53" y="560" width="87" height="30" as="geometry" />
        </mxCell>
        <mxCell id="wQ3vL-IBeLK55Qo7cI2P-49" value="thất bại" style="text;html=1;align=center;verticalAlign=middle;whiteSpace=wrap;rounded=0;" vertex="1" parent="wQ3vL-IBeLK55Qo7cI2P-14">
          <mxGeometry x="30" y="480" width="89.83" height="30" as="geometry" />
        </mxCell>
        <mxCell id="wQ3vL-IBeLK55Qo7cI2P-31" value="" style="endArrow=classic;html=1;rounded=0;exitX=1.008;exitY=0.493;exitDx=0;exitDy=0;exitPerimeter=0;entryX=0;entryY=0.5;entryDx=0;entryDy=0;" edge="1" parent="1" source="wQ3vL-IBeLK55Qo7cI2P-25" target="wQ3vL-IBeLK55Qo7cI2P-30">
          <mxGeometry width="50" height="50" relative="1" as="geometry">
            <mxPoint x="380" y="400" as="sourcePoint" />
            <mxPoint x="430" y="350" as="targetPoint" />
          </mxGeometry>
        </mxCell>
        <mxCell id="wQ3vL-IBeLK55Qo7cI2P-35" value="" style="endArrow=classic;html=1;rounded=0;exitX=0.028;exitY=0.513;exitDx=0;exitDy=0;exitPerimeter=0;entryX=1;entryY=0.5;entryDx=0;entryDy=0;" edge="1" parent="1" source="wQ3vL-IBeLK55Qo7cI2P-32" target="wQ3vL-IBeLK55Qo7cI2P-34">
          <mxGeometry width="50" height="50" relative="1" as="geometry">
            <mxPoint x="457.34004000000004" y="385.65" as="sourcePoint" />
            <mxPoint x="350" y="387" as="targetPoint" />
          </mxGeometry>
        </mxCell>
        <mxCell id="wQ3vL-IBeLK55Qo7cI2P-45" value="" style="endArrow=classic;html=1;rounded=0;entryX=1;entryY=0.5;entryDx=0;entryDy=0;exitX=0.514;exitY=1.027;exitDx=0;exitDy=0;exitPerimeter=0;" edge="1" parent="1">
          <mxGeometry width="50" height="50" relative="1" as="geometry">
            <mxPoint x="501.66161999999986" y="569.35" as="sourcePoint" />
            <mxPoint x="339" y="628" as="targetPoint" />
            <Array as="points">
              <mxPoint x="502" y="628" />
            </Array>
          </mxGeometry>
        </mxCell>
        <mxCell id="wQ3vL-IBeLK55Qo7cI2P-48" value="" style="endArrow=classic;html=1;rounded=0;entryX=0.5;entryY=1;entryDx=0;entryDy=0;exitX=0.034;exitY=0.547;exitDx=0;exitDy=0;exitPerimeter=0;" edge="1" parent="1">
          <mxGeometry width="50" height="50" relative="1" as="geometry">
            <mxPoint x="460.6632199999999" y="545.35" as="sourcePoint" />
            <mxPoint x="278" y="418" as="targetPoint" />
            <Array as="points">
              <mxPoint x="278" y="545" />
            </Array>
          </mxGeometry>
        </mxCell>
        <mxCell id="wQ3vL-IBeLK55Qo7cI2P-53" value="" style="endArrow=classic;html=1;rounded=0;exitX=0.5;exitY=1;exitDx=0;exitDy=0;" edge="1" parent="1" source="wQ3vL-IBeLK55Qo7cI2P-41">
          <mxGeometry width="50" height="50" relative="1" as="geometry">
            <mxPoint x="380" y="730" as="sourcePoint" />
            <mxPoint x="150" y="740" as="targetPoint" />
          </mxGeometry>
        </mxCell>
        <mxCell id="wQ3vL-IBeLK55Qo7cI2P-54" value="" style="endArrow=classic;html=1;rounded=0;exitX=0.5;exitY=1;exitDx=0;exitDy=0;" edge="1" parent="1" source="wQ3vL-IBeLK55Qo7cI2P-27">
          <mxGeometry width="50" height="50" relative="1" as="geometry">
            <mxPoint x="380" y="630" as="sourcePoint" />
            <mxPoint x="150" y="740" as="targetPoint" />
          </mxGeometry>
        </mxCell>
        <mxCell id="wQ3vL-IBeLK55Qo7cI2P-55" value="" style="endArrow=classic;html=1;rounded=0;exitX=0.25;exitY=1;exitDx=0;exitDy=0;" edge="1" parent="1" source="wQ3vL-IBeLK55Qo7cI2P-34">
          <mxGeometry width="50" height="50" relative="1" as="geometry">
            <mxPoint x="380" y="530" as="sourcePoint" />
            <mxPoint x="150" y="740" as="targetPoint" />
          </mxGeometry>
        </mxCell>
      </root>
    </mxGraphModel>
  </diagram>
</mxfile>
